<svg id="visual" viewBox="0 0 900 600" width="900" height="600" xmlns="http://www.w3.org/2000/svg" xmlns:xlink="http://www.w3.org/1999/xlink" version="1.1"><rect x="0" y="0" width="900" height="600" fill="#001220"></rect><defs><linearGradient id="grad1_0" x1="33.3%" y1="0%" x2="100%" y2="100%"><stop offset="20%" stop-color="#fbae3c" stop-opacity="1"></stop><stop offset="80%" stop-color="#fbae3c" stop-opacity="1"></stop></linearGradient></defs><defs><linearGradient id="grad1_1" x1="33.3%" y1="0%" x2="100%" y2="100%"><stop offset="20%" stop-color="#fbae3c" stop-opacity="1"></stop><stop offset="80%" stop-color="#96446e" stop-opacity="1"></stop></linearGradient></defs><defs><linearGradient id="grad1_2" x1="33.3%" y1="0%" x2="100%" y2="100%"><stop offset="20%" stop-color="#001220" stop-opacity="1"></stop><stop offset="80%" stop-color="#96446e" stop-opacity="1"></stop></linearGradient></defs><defs><linearGradient id="grad2_0" x1="0%" y1="0%" x2="66.7%" y2="100%"><stop offset="20%" stop-color="#fbae3c" stop-opacity="1"></stop><stop offset="80%" stop-color="#fbae3c" stop-opacity="1"></stop></linearGradient></defs><defs><linearGradient id="grad2_1" x1="0%" y1="0%" x2="66.7%" y2="100%"><stop offset="20%" stop-color="#96446e" stop-opacity="1"></stop><stop offset="80%" stop-color="#fbae3c" stop-opacity="1"></stop></linearGradient></defs><defs><linearGradient id="grad2_2" x1="0%" y1="0%" x2="66.7%" y2="100%"><stop offset="20%" stop-color="#96446e" stop-opacity="1"></stop><stop offset="80%" stop-color="#001220" stop-opacity="1"></stop></linearGradient></defs><g transform="translate(900, 0)"><path d="M0 513.8C-65.4 505.5 -130.8 497.2 -196.6 474.7C-262.4 452.2 -328.6 415.4 -360.6 360.6C-392.6 305.8 -390.4 233 -410.2 169.9C-430 106.8 -471.9 53.4 -513.8 0L0 0Z" fill="#3d3056"></path><path d="M0 342.5C-43.6 337 -87.2 331.5 -131.1 316.5C-175 301.4 -219.1 276.9 -240.4 240.4C-261.7 203.9 -260.3 155.3 -273.5 113.3C-286.7 71.2 -314.6 35.6 -342.5 0L0 0Z" fill="#e1685e"></path><path d="M0 171.3C-21.8 168.5 -43.6 165.7 -65.5 158.2C-87.5 150.7 -109.5 138.5 -120.2 120.2C-130.9 101.9 -130.1 77.7 -136.7 56.6C-143.3 35.6 -157.3 17.8 -171.3 0L0 0Z" fill="#fbae3c"></path></g><g transform="translate(0, 600)"><path d="M0 -513.8C67.2 -507.1 134.4 -500.4 196.6 -474.7C258.8 -449 316 -404.4 350.7 -350.7C385.5 -297.1 397.8 -234.5 421.3 -174.5C444.7 -114.6 479.3 -57.3 513.8 0L0 0Z" fill="#3d3056"></path><path d="M0 -342.5C44.8 -338.1 89.6 -333.6 131.1 -316.5C172.5 -299.3 210.6 -269.6 233.8 -233.8C257 -198.1 265.2 -156.3 280.9 -116.3C296.5 -76.4 319.5 -38.2 342.5 0L0 0Z" fill="#e1685e"></path><path d="M0 -171.3C22.4 -169 44.8 -166.8 65.5 -158.2C86.3 -149.7 105.3 -134.8 116.9 -116.9C128.5 -99 132.6 -78.2 140.4 -58.2C148.2 -38.2 159.8 -19.1 171.3 0L0 0Z" fill="#fbae3c"></path></g></svg>