<svg id="visual" viewBox="0 0 900 600" width="900" height="600" xmlns="http://www.w3.org/2000/svg" xmlns:xlink="http://www.w3.org/1999/xlink" version="1.1"><path d="M0 79L13.7 79C27.3 79 54.7 79 82 82C109.3 85 136.7 91 163.8 94C191 97 218 97 245.2 93C272.3 89 299.7 81 327 80C354.3 79 381.7 85 409 88C436.3 91 463.7 91 491 90C518.3 89 545.7 87 573 80C600.3 73 627.7 61 654.8 64C682 67 709 85 736.2 89C763.3 93 790.7 83 818 81C845.3 79 872.7 85 886.3 88L900 91L900 0L886.3 0C872.7 0 845.3 0 818 0C790.7 0 763.3 0 736.2 0C709 0 682 0 654.8 0C627.7 0 600.3 0 573 0C545.7 0 518.3 0 491 0C463.7 0 436.3 0 409 0C381.7 0 354.3 0 327 0C299.7 0 272.3 0 245.2 0C218 0 191 0 163.8 0C136.7 0 109.3 0 82 0C54.7 0 27.3 0 13.7 0L0 0Z" fill="#6198ff"></path><path d="M0 181L13.7 182C27.3 183 54.7 185 82 183C109.3 181 136.7 175 163.8 177C191 179 218 189 245.2 186C272.3 183 299.7 167 327 159C354.3 151 381.7 151 409 152C436.3 153 463.7 155 491 163C518.3 171 545.7 185 573 179C600.3 173 627.7 147 654.8 145C682 143 709 165 736.2 174C763.3 183 790.7 179 818 183C845.3 187 872.7 199 886.3 205L900 211L900 89L886.3 86C872.7 83 845.3 77 818 79C790.7 81 763.3 91 736.2 87C709 83 682 65 654.8 62C627.7 59 600.3 71 573 78C545.7 85 518.3 87 491 88C463.7 89 436.3 89 409 86C381.7 83 354.3 77 327 78C299.7 79 272.3 87 245.2 91C218 95 191 95 163.8 92C136.7 89 109.3 83 82 80C54.7 77 27.3 77 13.7 77L0 77Z" fill="#3c80ff"></path><path d="M0 331L13.7 325C27.3 319 54.7 307 82 293C109.3 279 136.7 263 163.8 259C191 255 218 263 245.2 266C272.3 269 299.7 267 327 256C354.3 245 381.7 225 409 216C436.3 207 463.7 209 491 220C518.3 231 545.7 251 573 246C600.3 241 627.7 211 654.8 215C682 219 709 257 736.2 278C763.3 299 790.7 303 818 297C845.3 291 872.7 275 886.3 267L900 259L900 209L886.3 203C872.7 197 845.3 185 818 181C790.7 177 763.3 181 736.2 172C709 163 682 141 654.8 143C627.7 145 600.3 171 573 177C545.7 183 518.3 169 491 161C463.7 153 436.3 151 409 150C381.7 149 354.3 149 327 157C299.7 165 272.3 181 245.2 184C218 187 191 177 163.8 175C136.7 173 109.3 179 82 181C54.7 183 27.3 181 13.7 180L0 179Z" fill="#0066ff"></path><path d="M0 487L13.7 468C27.3 449 54.7 411 82 399C109.3 387 136.7 401 163.8 423C191 445 218 475 245.2 489C272.3 503 299.7 501 327 497C354.3 493 381.7 487 409 464C436.3 441 463.7 401 491 402C518.3 403 545.7 445 573 455C600.3 465 627.7 443 654.8 428C682 413 709 405 736.2 420C763.3 435 790.7 473 818 489C845.3 505 872.7 499 886.3 496L900 493L900 257L886.3 265C872.7 273 845.3 289 818 295C790.7 301 763.3 297 736.2 276C709 255 682 217 654.8 213C627.7 209 600.3 239 573 244C545.7 249 518.3 229 491 218C463.7 207 436.3 205 409 214C381.7 223 354.3 243 327 254C299.7 265 272.3 267 245.2 264C218 261 191 253 163.8 257C136.7 261 109.3 277 82 291C54.7 305 27.3 317 13.7 323L0 329Z" fill="#0059dd"></path><path d="M0 601L13.7 601C27.3 601 54.7 601 82 601C109.3 601 136.7 601 163.8 601C191 601 218 601 245.2 601C272.3 601 299.7 601 327 601C354.3 601 381.7 601 409 601C436.3 601 463.7 601 491 601C518.3 601 545.7 601 573 601C600.3 601 627.7 601 654.8 601C682 601 709 601 736.2 601C763.3 601 790.7 601 818 601C845.3 601 872.7 601 886.3 601L900 601L900 491L886.3 494C872.7 497 845.3 503 818 487C790.7 471 763.3 433 736.2 418C709 403 682 411 654.8 426C627.7 441 600.3 463 573 453C545.7 443 518.3 401 491 400C463.7 399 436.3 439 409 462C381.7 485 354.3 491 327 495C299.7 499 272.3 501 245.2 487C218 473 191 443 163.8 421C136.7 399 109.3 385 82 397C54.7 409 27.3 447 13.7 466L0 485Z" fill="#004cbb"></path></svg>